<?xml version="1.0" encoding="utf-8"?>
<!-- Generator: Adobe Illustrator 24.0.0, SVG Export Plug-In . SVG Version: 6.00 Build 0)  -->
<svg version="1.1" id="Capa_1" xmlns="http://www.w3.org/2000/svg" xmlns:xlink="http://www.w3.org/1999/xlink" x="0px" y="0px"
	 viewBox="0 0 110 22" style="enable-background:new 0 0 110 22;" xml:space="preserve">
<style type="text/css">
	.st0{fill:#F1F6E1;}
</style>
<g>
	<path class="st0" d="M7.99,7.62C7.81,8,7.56,8.32,7.24,8.58c-0.32,0.26-0.7,0.45-1.13,0.58C5.68,9.29,5.22,9.36,4.73,9.36H3.27
		v2.62H1.34V3.23h3.57c0.52,0,0.99,0.07,1.41,0.22C6.74,3.6,7.09,3.8,7.37,4.07c0.29,0.27,0.51,0.59,0.66,0.96
		C8.19,5.4,8.27,5.81,8.27,6.26v0.02C8.27,6.79,8.17,7.24,7.99,7.62z M6.32,6.29c0-0.43-0.14-0.76-0.42-0.99
		C5.62,5.08,5.24,4.97,4.75,4.97H3.27v2.67h1.52c0.48,0,0.86-0.13,1.13-0.38c0.27-0.25,0.4-0.57,0.4-0.94V6.29z"/>
	<path class="st0" d="M18.25,9.36c-0.23,0.55-0.56,1.03-0.97,1.44c-0.41,0.41-0.9,0.74-1.47,0.97c-0.57,0.24-1.19,0.36-1.87,0.36
		s-1.3-0.12-1.86-0.36c-0.57-0.24-1.06-0.56-1.47-0.96c-0.41-0.4-0.73-0.88-0.96-1.43C9.42,8.84,9.3,8.26,9.3,7.63V7.61
		c0-0.62,0.12-1.21,0.35-1.76c0.23-0.55,0.56-1.02,0.97-1.44c0.41-0.41,0.9-0.74,1.47-0.97s1.19-0.36,1.87-0.36s1.3,0.12,1.86,0.36
		S16.89,4,17.3,4.4c0.41,0.4,0.73,0.88,0.96,1.42c0.23,0.55,0.34,1.13,0.34,1.76v0.02C18.6,8.23,18.49,8.82,18.25,9.36z M16.59,7.61
		c0-0.37-0.06-0.73-0.19-1.06c-0.13-0.33-0.31-0.62-0.55-0.87C15.61,5.42,15.33,5.22,15,5.08s-0.68-0.22-1.06-0.22
		c-0.39,0-0.75,0.07-1.07,0.21c-0.32,0.14-0.6,0.34-0.82,0.59c-0.23,0.25-0.41,0.54-0.54,0.87s-0.19,0.68-0.19,1.06v0.02
		c0,0.38,0.06,0.73,0.19,1.06c0.13,0.33,0.31,0.63,0.55,0.88c0.24,0.25,0.52,0.45,0.84,0.59c0.32,0.15,0.68,0.22,1.07,0.22
		c0.38,0,0.74-0.07,1.06-0.21c0.32-0.14,0.6-0.34,0.83-0.59c0.23-0.25,0.41-0.54,0.54-0.87c0.13-0.33,0.19-0.68,0.19-1.06V7.61z"/>
	<path class="st0" d="M26.4,10.55c-0.16,0.34-0.38,0.62-0.66,0.85c-0.28,0.23-0.62,0.4-1.01,0.52c-0.39,0.12-0.82,0.18-1.3,0.18
		c-0.67,0-1.32-0.11-1.96-0.34c-0.64-0.23-1.22-0.58-1.75-1.06l1.14-1.36c0.4,0.32,0.81,0.58,1.23,0.78
		c0.42,0.19,0.88,0.29,1.38,0.29c0.4,0,0.71-0.07,0.93-0.22c0.22-0.15,0.33-0.35,0.33-0.61V9.56c0-0.13-0.02-0.23-0.07-0.33
		c-0.05-0.1-0.13-0.19-0.26-0.27c-0.13-0.08-0.31-0.17-0.54-0.25c-0.23-0.08-0.53-0.17-0.9-0.26c-0.44-0.11-0.84-0.23-1.2-0.36
		c-0.36-0.13-0.66-0.3-0.91-0.49c-0.25-0.2-0.44-0.44-0.58-0.73c-0.14-0.29-0.21-0.65-0.21-1.09V5.74c0-0.4,0.07-0.76,0.22-1.08
		c0.15-0.32,0.36-0.6,0.63-0.83c0.27-0.23,0.59-0.41,0.96-0.54c0.37-0.13,0.79-0.19,1.23-0.19c0.64,0,1.23,0.1,1.77,0.29
		c0.54,0.19,1.03,0.47,1.48,0.82l-1,1.45c-0.39-0.27-0.78-0.48-1.15-0.63c-0.37-0.15-0.75-0.23-1.13-0.23
		c-0.37,0-0.66,0.07-0.84,0.22c-0.19,0.15-0.28,0.33-0.28,0.54v0.02c0,0.14,0.03,0.26,0.08,0.37c0.05,0.1,0.15,0.2,0.29,0.28
		c0.14,0.08,0.34,0.16,0.58,0.24c0.25,0.07,0.56,0.16,0.93,0.26c0.44,0.12,0.84,0.25,1.18,0.39c0.35,0.15,0.64,0.32,0.88,0.52
		c0.24,0.2,0.42,0.44,0.54,0.72s0.18,0.6,0.18,0.99v0.02C26.64,9.83,26.56,10.21,26.4,10.55z"/>
	<path class="st0" d="M32.28,5.01v6.97h-1.93V5.01h-2.66V3.23h7.25v1.78H32.28z"/>
	<path class="st0" d="M36.41,11.98V3.23H43v1.71h-4.69v1.78h4.12v1.71h-4.12v1.84h4.75v1.71H36.41z"/>
	<path class="st0" d="M50.1,11.98l-1.87-2.8h-1.51v2.8h-1.93V3.23h4c1.04,0,1.85,0.25,2.43,0.76c0.58,0.51,0.87,1.22,0.87,2.12v0.02
		c0,0.71-0.17,1.29-0.52,1.73c-0.35,0.45-0.8,0.77-1.36,0.98l2.14,3.12H50.1z M50.14,6.22c0-0.42-0.13-0.73-0.4-0.94
		c-0.27-0.21-0.64-0.31-1.11-0.31h-1.91v2.51h1.95c0.48,0,0.84-0.11,1.09-0.34c0.25-0.22,0.38-0.52,0.38-0.9V6.22z"/>
	<path class="st0" d="M60.48,7.62c-0.18,0.38-0.44,0.7-0.76,0.96c-0.32,0.26-0.7,0.45-1.13,0.58c-0.43,0.13-0.89,0.19-1.38,0.19
		h-1.46v2.62h-1.93V3.23h3.57c0.52,0,0.99,0.07,1.41,0.22c0.41,0.15,0.76,0.35,1.05,0.62c0.29,0.27,0.51,0.59,0.66,0.96
		c0.15,0.37,0.23,0.78,0.23,1.23v0.02C60.75,6.79,60.66,7.24,60.48,7.62z M58.8,6.29c0-0.43-0.14-0.76-0.42-0.99
		c-0.28-0.22-0.66-0.34-1.14-0.34h-1.49v2.67h1.52c0.48,0,0.86-0.13,1.13-0.38c0.27-0.25,0.4-0.57,0.4-0.94V6.29z"/>
	<path class="st0" d="M70.74,9.36c-0.23,0.55-0.56,1.03-0.97,1.44c-0.41,0.41-0.9,0.74-1.47,0.97c-0.57,0.24-1.19,0.36-1.87,0.36
		c-0.67,0-1.3-0.12-1.86-0.36c-0.57-0.24-1.06-0.56-1.47-0.96c-0.41-0.4-0.73-0.88-0.96-1.43c-0.23-0.55-0.34-1.13-0.34-1.76V7.61
		c0-0.62,0.12-1.21,0.35-1.76c0.23-0.55,0.56-1.02,0.97-1.44c0.41-0.41,0.9-0.74,1.47-0.97s1.19-0.36,1.87-0.36s1.3,0.12,1.86,0.36
		C68.88,3.67,69.37,4,69.78,4.4c0.41,0.4,0.73,0.88,0.96,1.42c0.23,0.55,0.34,1.13,0.34,1.76v0.02C71.09,8.23,70.97,8.82,70.74,9.36
		z M69.08,7.61c0-0.37-0.06-0.73-0.19-1.06c-0.13-0.33-0.31-0.62-0.55-0.87c-0.24-0.25-0.52-0.45-0.84-0.59
		c-0.32-0.15-0.68-0.22-1.06-0.22c-0.39,0-0.75,0.07-1.07,0.21c-0.32,0.14-0.6,0.34-0.82,0.59c-0.23,0.25-0.41,0.54-0.54,0.87
		S63.8,7.21,63.8,7.58v0.02c0,0.38,0.06,0.73,0.19,1.06c0.13,0.33,0.31,0.63,0.55,0.88c0.24,0.25,0.52,0.45,0.84,0.59
		c0.32,0.15,0.68,0.22,1.07,0.22c0.38,0,0.74-0.07,1.06-0.21c0.32-0.14,0.6-0.34,0.83-0.59c0.23-0.25,0.41-0.54,0.54-0.87
		c0.13-0.33,0.19-0.68,0.19-1.06V7.61z"/>
	<path class="st0" d="M72.8,11.98V3.23h1.93v7.01h4.36v1.74H72.8z"/>
	<path class="st0" d="M80.62,11.98V3.23h1.93v8.75H80.62z"/>
	<path class="st0" d="M90.83,10.55c-0.16,0.34-0.38,0.62-0.66,0.85c-0.28,0.23-0.62,0.4-1.01,0.52c-0.39,0.12-0.82,0.18-1.3,0.18
		c-0.67,0-1.32-0.11-1.96-0.34c-0.64-0.23-1.22-0.58-1.75-1.06l1.14-1.36c0.4,0.32,0.81,0.58,1.23,0.78
		c0.42,0.19,0.88,0.29,1.38,0.29c0.4,0,0.71-0.07,0.93-0.22c0.22-0.15,0.33-0.35,0.33-0.61V9.56c0-0.13-0.02-0.23-0.07-0.33
		c-0.05-0.1-0.13-0.19-0.26-0.27c-0.13-0.08-0.31-0.17-0.54-0.25c-0.23-0.08-0.53-0.17-0.9-0.26c-0.44-0.11-0.84-0.23-1.2-0.36
		c-0.36-0.13-0.66-0.3-0.91-0.49s-0.44-0.44-0.58-0.73c-0.14-0.29-0.21-0.65-0.21-1.09V5.74c0-0.4,0.07-0.76,0.22-1.08
		c0.15-0.32,0.36-0.6,0.63-0.83c0.27-0.23,0.59-0.41,0.96-0.54c0.37-0.13,0.79-0.19,1.23-0.19c0.64,0,1.23,0.1,1.77,0.29
		c0.54,0.19,1.03,0.47,1.48,0.82l-1,1.45c-0.39-0.27-0.78-0.48-1.15-0.63s-0.75-0.23-1.13-0.23c-0.37,0-0.66,0.07-0.84,0.22
		c-0.19,0.15-0.28,0.33-0.28,0.54v0.02c0,0.14,0.03,0.26,0.08,0.37c0.05,0.1,0.15,0.2,0.29,0.28c0.14,0.08,0.34,0.16,0.58,0.24
		c0.25,0.07,0.56,0.16,0.93,0.26c0.44,0.12,0.84,0.25,1.18,0.39c0.35,0.15,0.64,0.32,0.88,0.52c0.24,0.2,0.42,0.44,0.54,0.72
		c0.12,0.28,0.18,0.6,0.18,0.99v0.02C91.06,9.83,90.98,10.21,90.83,10.55z"/>
	<path class="st0" d="M98.21,11.98V8.47h-3.55v3.51h-1.93V3.23h1.93v3.46h3.55V3.23h1.92v8.75H98.21z"/>
</g>
<g>
	<path class="st0" d="M106.05,9.18c-1.63,0-2.95-1.33-2.95-2.95s1.33-2.95,2.95-2.95S109,4.6,109,6.22S107.67,9.18,106.05,9.18z
		 M106.05,3.79c-1.34,0-2.43,1.09-2.43,2.43c0,1.34,1.09,2.43,2.43,2.43c1.34,0,2.43-1.09,2.43-2.43
		C108.48,4.88,107.39,3.79,106.05,3.79z"/>
</g>
<g>
	<path class="st0" d="M106.94,7.68l-0.71-1.06h-0.57v1.06h-0.73V4.36h1.52c0.4,0,0.7,0.1,0.92,0.29c0.22,0.19,0.33,0.46,0.33,0.81
		v0.01c0,0.27-0.07,0.49-0.2,0.66c-0.13,0.17-0.3,0.29-0.51,0.37l0.81,1.19H106.94z M106.95,5.5c0-0.16-0.05-0.28-0.15-0.36
		c-0.1-0.08-0.24-0.12-0.42-0.12h-0.73v0.95h0.74c0.18,0,0.32-0.04,0.41-0.13C106.9,5.76,106.95,5.65,106.95,5.5L106.95,5.5z"/>
</g>
<g>
	<path class="st0" d="M67.52,20.02l-1.64-2.14h-1.69v2.14H63.8v-5.16h2.17c1.11,0,1.84,0.6,1.84,1.47v0.01
		c0,0.86-0.64,1.36-1.51,1.47l1.7,2.2H67.52z M67.43,16.34c0-0.69-0.55-1.13-1.48-1.13h-1.76v2.32h1.74c0.86,0,1.5-0.43,1.5-1.18
		V16.34z"/>
	<path class="st0" d="M69.14,20.02v-5.16h3.67v0.35h-3.29v2.03h2.96v0.35h-2.96v2.07h3.32v0.35H69.14z"/>
	<path class="st0" d="M78.56,20.02v-4.48l-2.04,2.97h-0.03l-2.04-2.97v4.48h-0.37v-5.16h0.36l2.07,3.05l2.07-3.05h0.36v5.16H78.56z"
		/>
	<path class="st0" d="M80.49,20.02v-5.16h3.67v0.35h-3.29v2.03h2.96v0.35h-2.96v2.07h3.32v0.35H80.49z"/>
	<path class="st0" d="M89.15,20.02l-1.64-2.14h-1.69v2.14h-0.38v-5.16h2.17c1.11,0,1.84,0.6,1.84,1.47v0.01
		c0,0.86-0.64,1.36-1.51,1.47l1.7,2.2H89.15z M89.06,16.34c0-0.69-0.55-1.13-1.48-1.13h-1.76v2.32h1.74c0.86,0,1.5-0.43,1.5-1.18
		V16.34z"/>
	<path class="st0" d="M95.08,20.02l-0.66-1.45h-3.04l-0.66,1.45h-0.4l2.4-5.2h0.37l2.4,5.2H95.08z M92.9,15.24l-1.36,2.99h2.72
		L92.9,15.24z"/>
	<path class="st0" d="M98.23,20.09c-0.83,0-1.46-0.27-2.08-0.83l0.25-0.29c0.57,0.52,1.09,0.77,1.85,0.77c0.77,0,1.3-0.43,1.3-1.02
		v-0.01c0-0.55-0.29-0.86-1.46-1.1c-1.24-0.25-1.74-0.67-1.74-1.45v-0.02c0-0.77,0.7-1.36,1.66-1.36c0.75,0,1.25,0.21,1.77,0.63
		l-0.24,0.3c-0.49-0.42-0.97-0.58-1.54-0.58c-0.76,0-1.26,0.43-1.26,0.97v0.01c0,0.55,0.28,0.88,1.5,1.13
		c1.19,0.24,1.7,0.67,1.7,1.42v0.01C99.94,19.52,99.23,20.09,98.23,20.09z"/>
</g>
</svg>
